<svg width="40" height="40" viewBox="0 0 40 40" fill="none" xmlns="http://www.w3.org/2000/svg">
<path d="M39.2 20.0003C39.2 25.0924 37.1772 29.976 33.5765 33.5767C29.9758 37.1774 25.0922 39.2003 20 39.2003C14.9079 39.2003 10.0243 37.1774 6.4236 33.5767C2.8229 29.976 0.800049 25.0924 0.800049 20.0003C0.800049 14.9081 2.8229 10.0245 6.4236 6.42384C10.0243 2.82314 14.9079 0.800293 20 0.800293C25.0922 0.800293 29.9758 2.82314 33.5765 6.42384C37.1772 10.0245 39.2 14.9081 39.2 20.0003V20.0003ZM10.4 20.0003C10.4 20.3186 10.5265 20.6238 10.7515 20.8488C10.9766 21.0739 11.2818 21.2003 11.6 21.2003H18.8V28.4003C18.8 28.7186 18.9265 29.0238 19.1515 29.2488C19.3766 29.4739 19.6818 29.6003 20 29.6003C20.3183 29.6003 20.6235 29.4739 20.8486 29.2488C21.0736 29.0238 21.2 28.7186 21.2 28.4003V21.2003H28.4C28.7183 21.2003 29.0235 21.0739 29.2486 20.8488C29.4736 20.6238 29.6 20.3186 29.6 20.0003C29.6 19.682 29.4736 19.3768 29.2486 19.1518C29.0235 18.9267 28.7183 18.8003 28.4 18.8003H21.2V11.6003C21.2 11.282 21.0736 10.9768 20.8486 10.7518C20.6235 10.5267 20.3183 10.4003 20 10.4003C19.6818 10.4003 19.3766 10.5267 19.1515 10.7518C18.9265 10.9768 18.8 11.282 18.8 11.6003V18.8003H11.6C11.2818 18.8003 10.9766 18.9267 10.7515 19.1518C10.5265 19.3768 10.4 19.682 10.4 20.0003Z" fill="#1D9BF0"/>
</svg>
