<svg width="48" height="30" viewBox="0 0 48 30" fill="none" xmlns="http://www.w3.org/2000/svg">
<rect x="0.609375" y="0.499939" width="46.1974" height="29" rx="3.5" fill="white" stroke="#B2BCCA"/>
<path d="M27.1094 28.9999L46.1094 23.2499V25.9999C46.1094 27.6568 44.7662 28.9999 43.1094 28.9999H27.1094Z" fill="#FD6020"/>
<path fill-rule="evenodd" clip-rule="evenodd" d="M40.9125 11.3886C42.3635 11.3886 43.1616 11.993 43.1616 13.1347C43.2341 14.0077 42.5812 14.7465 41.7106 14.8808L43.6695 17.3657H42.1459L40.4772 14.948H40.3321V17.3657H39.0987V11.3886H40.9125ZM40.3321 14.142H40.6949C41.4929 14.142 41.8557 13.8062 41.8557 13.2018C41.8557 12.6645 41.4929 12.3287 40.6949 12.3287H40.3321V14.142ZM34.8183 17.3657H38.3007V16.3583H36.0516V14.7465H38.2282V13.7391H36.0516V12.3959H38.3007V11.3886H34.8183V17.3657ZM31.1906 15.4181L29.5219 11.3886H28.2159L30.9004 17.5H31.5533L34.2377 11.3886H32.9318L31.1906 15.4181ZM16.4625 14.4106C16.4625 16.0895 17.9135 17.4999 19.7273 17.4999C20.3077 17.4999 20.8156 17.3656 21.3235 17.1641V15.8209C20.9607 16.2239 20.4528 16.4925 19.8724 16.4925C18.7116 16.4925 17.7684 15.6866 17.7684 14.612V14.4777C17.6959 13.4032 18.6391 12.463 19.7999 12.3958C20.3803 12.3958 20.9607 12.6644 21.3235 13.0674V11.7242C20.8882 11.4556 20.3077 11.3884 19.7999 11.3884C17.9135 11.2541 16.4625 12.6644 16.4625 14.4106ZM14.2135 13.6719C13.488 13.4033 13.2703 13.2689 13.2703 12.9331C13.3429 12.5302 13.7056 12.1944 14.1409 12.2616C14.5037 12.2616 14.8664 12.463 15.1566 12.7317L15.8096 11.9258C15.3017 11.5228 14.6488 11.2542 13.9958 11.2542C12.9801 11.187 12.1095 11.9258 12.0369 12.866V12.9331C12.0369 13.7391 12.3997 14.2092 13.5605 14.545C13.8507 14.6121 14.1409 14.7464 14.4311 14.8808C14.6488 15.0151 14.7939 15.2165 14.7939 15.4852C14.7939 15.9553 14.3586 16.3582 13.9233 16.3582H13.8507C13.2703 16.3582 12.7624 16.0224 12.5448 15.5523L11.7467 16.2911C12.182 17.0298 13.0526 17.4328 13.9233 17.4328C15.0841 17.4999 16.0273 16.694 16.0998 15.6195V15.418C16.0273 14.6121 15.6645 14.2092 14.2135 13.6719ZM10.0055 17.3657H11.2389V11.3886H10.0055V17.3657ZM4.27393 11.3886H6.08772H6.45048C8.19172 11.4557 9.5702 12.7989 9.49765 14.4107C9.49765 15.2838 9.06234 16.0897 8.33682 16.6941C7.68385 17.1642 6.88579 17.4329 6.08772 17.3657H4.27393V11.3886ZM5.87011 16.3584C6.45052 16.4255 7.10349 16.224 7.5388 15.8882C7.97411 15.4853 8.19176 14.948 8.19176 14.3436C8.19176 13.8063 7.97411 13.2691 7.5388 12.8661C7.10349 12.5303 6.45052 12.3288 5.87011 12.396H5.50735V16.3584H5.87011Z" fill="black"/>
<path fill-rule="evenodd" clip-rule="evenodd" d="M25.0239 11.2499C23.2101 11.2499 21.6865 12.5931 21.6865 14.3392C21.6865 16.0182 23.1376 17.4285 25.0239 17.4957C26.9102 17.5629 28.3613 16.1525 28.4338 14.4064C28.3613 12.6603 26.9102 11.2499 25.0239 11.2499V11.2499Z" fill="#FD6020"/>
</svg>
