<svg width="49" height="30" viewBox="0 0 49 30" fill="none" xmlns="http://www.w3.org/2000/svg">
<rect x="1.35938" y="0.499939" width="46.1974" height="29" rx="3.5" fill="white" stroke="#B2BCCA"/>
<path d="M27.5919 14.6322C27.5919 19.2616 23.4721 23.0144 18.3901 23.0144C13.308 23.0144 9.18823 19.2616 9.18823 14.6322C9.18823 10.0028 13.308 6.25 18.3901 6.25C23.4721 6.25 27.5919 10.0028 27.5919 14.6322Z" fill="#ED0006"/>
<path d="M39.5294 14.6322C39.5294 19.2616 35.4096 23.0144 30.3276 23.0144C25.2455 23.0144 21.1257 19.2616 21.1257 14.6322C21.1257 10.0028 25.2455 6.25 30.3276 6.25C35.4096 6.25 39.5294 10.0028 39.5294 14.6322Z" fill="#2F80ED"/>
<path fill-rule="evenodd" clip-rule="evenodd" d="M24.3588 21.0119C22.3803 19.4744 21.1257 17.1867 21.1257 14.6321C21.1257 12.0775 22.3803 9.78983 24.3587 8.25238C26.3372 9.78983 27.5918 12.0775 27.5918 14.6321C27.5918 17.1867 26.3372 19.4744 24.3588 21.0119Z" fill="#6C6BBD"/>
</svg>
