<svg width="48" height="30" viewBox="0 0 48 30" fill="none" xmlns="http://www.w3.org/2000/svg">
<rect x="1.10938" y="0.499939" width="46.1974" height="29" rx="3.5" fill="white" stroke="#B2BCCA"/>
<path fill-rule="evenodd" clip-rule="evenodd" d="M24.4564 21.0368C22.8128 22.2844 20.6807 23.0375 18.3509 23.0375C13.1524 23.0375 8.93823 19.2879 8.93823 14.6625C8.93823 10.0371 13.1524 6.28748 18.3509 6.28748C20.6807 6.28748 22.8128 7.0406 24.4564 8.28815C26.1001 7.0406 28.2321 6.28748 30.5619 6.28748C35.7604 6.28748 39.9746 10.0371 39.9746 14.6625C39.9746 19.2879 35.7604 23.0375 30.5619 23.0375C28.2321 23.0375 26.1001 22.2844 24.4564 21.0368Z" fill="#ED0006"/>
<path fill-rule="evenodd" clip-rule="evenodd" d="M24.4563 21.0369C26.4802 19.5007 27.7635 17.2149 27.7635 14.6625C27.7635 12.11 26.4802 9.82422 24.4563 8.28809C26.0999 7.04057 28.232 6.28748 30.5617 6.28748C35.7602 6.28748 39.9744 10.0371 39.9744 14.6625C39.9744 19.2879 35.7602 23.0375 30.5617 23.0375C28.232 23.0375 26.0999 22.2844 24.4563 21.0369Z" fill="#F9A000"/>
<path fill-rule="evenodd" clip-rule="evenodd" d="M24.4565 21.0368C26.4804 19.5006 27.7637 17.2149 27.7637 14.6625C27.7637 12.11 26.4804 9.82428 24.4565 8.28815C22.4327 9.82428 21.1494 12.11 21.1494 14.6625C21.1494 17.2149 22.4327 19.5006 24.4565 21.0368Z" fill="#FD6020"/>
</svg>
