<svg width="48" height="30" viewBox="0 0 48 30" fill="none" xmlns="http://www.w3.org/2000/svg">
<rect x="0.859375" y="0.499939" width="46.1974" height="29" rx="3.5" fill="white" stroke="#B2BCCA"/>
<path fill-rule="evenodd" clip-rule="evenodd" d="M15.2823 19.8227H12.4231L10.279 12.2404C10.1772 11.8916 9.96117 11.5832 9.64332 11.4379C8.85009 11.0727 7.97601 10.782 7.02246 10.6354V10.3435H11.6285C12.2642 10.3435 12.741 10.782 12.8204 11.2913L13.9329 16.7607L16.7907 10.3435H19.5705L15.2823 19.8227ZM21.1598 19.8227H18.4595L20.6831 10.3435H23.3834L21.1598 19.8227ZM26.8769 12.9696C26.9564 12.459 27.4331 12.1671 27.9894 12.1671C28.8635 12.0938 29.8156 12.2404 30.6102 12.6044L31.087 10.5635C30.2924 10.2715 29.4183 10.1249 28.6251 10.1249C26.0042 10.1249 24.0971 11.4379 24.0971 13.2602C24.0971 14.6465 25.448 15.3744 26.4015 15.813C27.4331 16.2502 27.8304 16.5421 27.751 16.9794C27.751 17.6352 26.9564 17.9272 26.1631 17.9272C25.2096 17.9272 24.256 17.7085 23.3834 17.3433L22.9066 19.3855C23.8601 19.7495 24.8917 19.896 25.8453 19.896C28.784 19.9681 30.6102 18.6563 30.6102 16.6875C30.6102 14.208 26.8769 14.0627 26.8769 12.9696ZM40.0605 19.8227L37.9164 10.3435H35.6134C35.1367 10.3435 34.6599 10.6354 34.501 11.0727L30.5306 19.8227H33.3104L33.8653 18.4377H37.2807L37.5986 19.8227H40.0605ZM36.0109 12.8962L36.8041 16.4687H34.5806L36.0109 12.8962Z" fill="#28356A"/>
</svg>
