<svg width="16" height="36" viewBox="0 0 16 36" fill="none" xmlns="http://www.w3.org/2000/svg">
<path fill-rule="evenodd" clip-rule="evenodd" d="M10.1263 0.25853L15.7416 5.87585C16.0861 6.22056 16.0861 6.77944 15.7416 7.12415L10.1263 12.7415C9.78173 13.0862 9.22305 13.0862 8.87847 12.7415C8.53389 12.3968 8.53389 11.8379 8.87847 11.4932L12.9875 7.38268H1V5.61732H12.9875L8.87847 1.50682C8.53389 1.16212 8.53389 0.603237 8.87847 0.25853C9.22305 -0.0861768 9.78173 -0.0861768 10.1263 0.25853Z" fill="#9C9C9C"/>
<path fill-rule="evenodd" clip-rule="evenodd" d="M5.87369 23.2585L0.258435 28.8759C-0.0861455 29.2206 -0.0861455 29.7794 0.258435 30.1241L5.87369 35.7415C6.21827 36.0862 6.77695 36.0862 7.12153 35.7415C7.46611 35.3968 7.46611 34.8379 7.12153 34.4932L3.01254 30.3827H15V28.6173H3.01254L7.12153 24.5068C7.46611 24.1621 7.46611 23.6032 7.12153 23.2585C6.77695 22.9138 6.21827 22.9138 5.87369 23.2585Z" fill="#9C9C9C"/>
</svg>
