<svg width="80" height="80" viewBox="0 0 80 80" fill="none" xmlns="http://www.w3.org/2000/svg">
<circle cx="40" cy="40" r="40" fill="#EBEFF7"/>
<path d="M37.4998 20.9C38.8998 19.72 41.1598 19.72 42.5198 20.9L45.6798 23.6C46.2798 24.1 47.4198 24.52 48.2198 24.52H51.6198C53.7398 24.52 55.4798 26.26 55.4798 28.38V31.78C55.4798 32.58 55.8998 33.7 56.3998 34.3L59.0998 37.46C60.2798 38.86 60.2798 41.12 59.0998 42.48L56.3998 45.64C55.8998 46.24 55.4798 47.36 55.4798 48.16V51.56C55.4798 53.68 53.7398 55.42 51.6198 55.42H48.2198C47.4198 55.42 46.2998 55.84 45.6998 56.34L42.5398 59.04C41.1398 60.22 38.8798 60.22 37.5198 59.04L34.3598 56.34C33.7598 55.84 32.6198 55.42 31.8398 55.42H28.3398C26.2198 55.42 24.4798 53.68 24.4798 51.56V48.14C24.4798 47.36 24.0798 46.22 23.5798 45.64L20.8798 42.46C19.7198 41.08 19.7198 38.84 20.8798 37.46L23.5798 34.28C24.0798 33.68 24.4798 32.56 24.4798 31.78V28.4C24.4798 26.28 26.2198 24.54 28.3398 24.54H31.7998C32.5998 24.54 33.7198 24.12 34.3198 23.62L37.4998 20.9Z" stroke="#3772FF" stroke-width="1.8" stroke-linecap="round" stroke-linejoin="round"/>
<path d="M40 32.26V41.92" stroke="#3772FF" stroke-width="1.8" stroke-linecap="round" stroke-linejoin="round"/>
<path d="M39.9893 48H40.0072" stroke="#3772FF" stroke-width="2" stroke-linecap="round" stroke-linejoin="round"/>
</svg>
