<svg width="50" height="59" viewBox="0 0 50 59" fill="none" xmlns="http://www.w3.org/2000/svg">
<rect y="4" width="50" height="50" rx="5" fill="#1292BB"/>
<path d="M17.4979 41.856L18.9197 36.0269L17.4979 41.856ZM12.6379 39.984L7.1498 37.559L5.01504 42.3903L9.53671 45.1204L12.6379 39.984ZM15.3739 33.792L18.3842 28.6018L12.5921 25.2423L9.8858 31.367L15.3739 33.792ZM19.3699 35.484L17.6718 41.2387L17.7274 41.2551L17.7833 41.2704L19.3699 35.484ZM25.5979 35.952L26.834 41.8233L26.944 41.8001L27.0531 41.7729L25.5979 35.952ZM26.6419 35.484L30.6281 39.9685L30.7599 39.8513L30.8846 39.7266L26.6419 35.484ZM26.2099 33.648L23.4259 38.963H23.4259L26.2099 33.648ZM24.1939 33L22.8197 38.8405L22.9181 38.8637L23.0172 38.8835L24.1939 33ZM21.4939 32.424L20.2075 38.2845L20.276 38.2995L20.3449 38.3129L21.4939 32.424ZM18.5059 31.596L16.5671 37.2741L16.5878 37.2812L16.6086 37.2881L18.5059 31.596ZM15.7699 30.264L12.4081 35.2337L12.4413 35.2562L12.4749 35.2782L15.7699 30.264ZM13.7899 28.104L8.53847 31.0061L8.55497 31.036L8.57181 31.0656L13.7899 28.104ZM14.3299 20.472L9.38033 17.0806L9.37345 17.0906L9.36662 17.1007L14.3299 20.472ZM18.2539 17.376L15.8451 11.8808L15.8311 11.8869L15.8171 11.8931L18.2539 17.376ZM29.8099 16.764L28.5353 22.6271L29.8099 16.764ZM34.2739 18.42L39.8153 20.7208L41.8559 15.806L37.22 13.1931L34.2739 18.42ZM31.7179 24.576L29.0346 29.9426L34.7912 32.8209L37.2593 26.8768L31.7179 24.576ZM28.0819 23.172L26.5134 28.9634L26.5284 28.9674L26.5433 28.9714L28.0819 23.172ZM22.7539 22.92L21.0298 17.173H21.0298L22.7539 22.92ZM21.7099 23.496L17.2501 19.4822L17.1336 19.6117L17.0247 19.7478L21.7099 23.496ZM22.1779 25.332L19.3939 30.647L19.4951 30.7L19.5983 30.7492L22.1779 25.332ZM24.1579 25.944L22.948 31.8207L22.9646 31.8242L22.9812 31.8275L24.1579 25.944ZM26.8939 26.484L25.7449 32.3729L25.758 32.3755L25.7712 32.378L26.8939 26.484ZM29.8819 27.276L27.9431 32.9541H27.9431L29.8819 27.276ZM32.5819 28.608L29.2201 33.5777L29.2533 33.6002L29.2869 33.6222L32.5819 28.608ZM34.5979 30.768L29.3798 33.7296L29.3798 33.7296L34.5979 30.768ZM34.0219 38.328L29.0723 34.9366L29.0655 34.9466L29.0586 34.9567L34.0219 38.328ZM30.1339 41.424L32.5708 46.9069L32.6024 46.8928L32.6339 46.8784L30.1339 41.424ZM23.6179 36.576C21.9645 36.576 20.4028 36.3886 18.9197 36.0269L16.0762 47.6851C18.529 48.2834 21.0473 48.576 23.6179 48.576V36.576ZM18.9197 36.0269C17.3441 35.6426 16.3392 35.2099 15.7391 34.8476L9.53671 45.1204C11.4807 46.2941 13.7157 47.1094 16.0762 47.6851L18.9197 36.0269ZM18.126 42.409L20.862 36.217L9.8858 31.367L7.1498 37.559L18.126 42.409ZM12.3636 38.9822C14.0159 39.9405 15.7948 40.6848 17.6718 41.2387L21.068 29.7293C20.017 29.4192 19.1319 29.0355 18.3842 28.6018L12.3636 38.9822ZM17.7833 41.2704C19.733 41.805 21.7075 42.096 23.6899 42.096V30.096C22.8884 30.096 21.9828 29.979 20.9565 29.6976L17.7833 41.2704ZM23.6899 42.096C24.6615 42.096 25.7784 42.0455 26.834 41.8233L24.3619 30.0807C24.4671 30.0585 24.4705 30.0662 24.3274 30.077C24.1942 30.0871 23.9865 30.096 23.6899 30.096V42.096ZM27.0531 41.7729C27.8906 41.5635 29.3444 41.1095 30.6281 39.9685L22.6557 30.9995C23.1242 30.5831 23.5477 30.3672 23.7646 30.2699C23.9913 30.1683 24.1351 30.133 24.1427 30.1311L27.0531 41.7729ZM30.8846 39.7266C32.15 38.4612 32.9659 36.7113 32.9659 34.728H20.9659C20.9659 34.1012 21.0879 33.4278 21.3701 32.7695C21.6492 32.1181 22.0291 31.6116 22.3993 31.2414L30.8846 39.7266ZM32.9659 34.728C32.9659 31.4522 30.8936 29.3281 28.994 28.333L23.4259 38.963C23.0703 38.7767 22.424 38.3602 21.8615 37.5568C21.2538 36.6886 20.9659 35.6817 20.9659 34.728H32.9659ZM28.994 28.333C27.7976 27.7063 26.5181 27.346 25.3706 27.1165L23.0172 38.8835C23.2596 38.932 23.4121 38.9745 23.4919 39.0002C23.5755 39.027 23.5401 39.0228 23.4259 38.963L28.994 28.333ZM25.5682 27.1595C24.6647 26.9469 23.6883 26.739 22.643 26.5351L20.3449 38.3129C21.2676 38.493 22.0912 38.6691 22.8197 38.8405L25.5682 27.1595ZM22.7804 26.5635C22.0137 26.3952 21.2216 26.1767 20.4033 25.9039L16.6086 37.2881C17.8062 37.6873 19.0061 38.0208 20.2075 38.2845L22.7804 26.5635ZM20.4448 25.9179C19.9225 25.7395 19.4683 25.5148 19.065 25.2498L12.4749 35.2782C13.7515 36.1172 15.1214 36.7805 16.5671 37.2741L20.4448 25.9179ZM19.1318 25.2943C19.1091 25.2789 19.0732 25.2572 19.008 25.1424L8.57181 31.0656C9.51461 32.7268 10.7988 34.1451 12.4081 35.2337L19.1318 25.2943ZM19.0414 25.2019C19.1505 25.3994 19.0339 25.3355 19.0339 24.72H7.03392C7.03392 26.7925 7.42133 28.9846 8.53847 31.0061L19.0414 25.2019ZM19.0339 24.72C19.0339 24.3436 19.1151 24.1055 19.2932 23.8433L9.36662 17.1007C7.81672 19.3825 7.03392 21.9764 7.03392 24.72H19.0339ZM19.2795 23.8634C19.4224 23.6548 19.7699 23.2682 20.6908 22.8589L15.8171 11.8931C13.282 13.0198 11.0134 14.6972 9.38033 17.0806L19.2795 23.8634ZM20.6628 22.8712C21.4368 22.5319 22.7296 22.224 24.7699 22.224V10.224C21.6262 10.224 18.575 10.6841 15.8451 11.8808L20.6628 22.8712ZM24.7699 22.224C26.0478 22.224 27.3004 22.3586 28.5353 22.6271L31.0845 10.9009C29.0074 10.4494 26.9001 10.224 24.7699 10.224V22.224ZM28.5353 22.6271C29.674 22.8746 30.5878 23.2298 31.3278 23.6469L37.22 13.1931C35.32 12.1222 33.2578 11.3734 31.0845 10.9009L28.5353 22.6271ZM28.7326 16.1192L26.1766 22.2752L37.2593 26.8768L39.8153 20.7208L28.7326 16.1192ZM34.4012 19.2094C32.8395 18.4286 31.2445 17.8035 29.6205 17.3726L26.5433 28.9714C27.2714 29.1645 28.1003 29.4754 29.0346 29.9426L34.4012 19.2094ZM29.6504 17.3806C28.0282 16.9413 26.3727 16.704 24.6979 16.704V28.704C25.2312 28.704 25.8316 28.7787 26.5134 28.9634L29.6504 17.3806ZM24.6979 16.704C23.6154 16.704 22.3083 16.7895 21.0298 17.173L24.478 28.667C24.3763 28.6975 24.3055 28.7124 24.2739 28.7184C24.2416 28.7246 24.2362 28.7242 24.2625 28.7213C24.32 28.7149 24.4589 28.704 24.6979 28.704V16.704ZM21.0298 17.173C20.0299 17.473 18.5019 18.0913 17.2501 19.4822L26.1697 27.5098C25.7403 27.9869 25.313 28.2701 25.0314 28.4255C24.7508 28.5803 24.5455 28.6467 24.478 28.667L21.0298 17.173ZM17.0247 19.7478C16.043 20.975 15.4219 22.5425 15.4219 24.288H27.4219C27.4219 25.4575 26.9929 26.497 26.3951 27.2442L17.0247 19.7478ZM15.4219 24.288C15.4219 27.6707 17.6429 29.7298 19.3939 30.647L24.962 20.017C25.2762 20.1816 25.9059 20.5741 26.4706 21.3539C27.0902 22.2096 27.4219 23.2476 27.4219 24.288H15.4219ZM19.5983 30.7492C20.6958 31.2718 21.8663 31.598 22.948 31.8207L25.3678 20.0673C25.1123 20.0146 24.9349 19.9673 24.8228 19.9326C24.7072 19.8969 24.6955 19.8853 24.7575 19.9148L19.5983 30.7492ZM22.9812 31.8275C23.8318 31.9976 24.7531 32.1794 25.7449 32.3729L28.043 20.5951C27.0667 20.4046 26.164 20.2264 25.3346 20.0605L22.9812 31.8275ZM25.7712 32.378C26.4988 32.5166 27.2222 32.7079 27.9431 32.9541L31.8208 21.5979C30.5737 21.1721 29.3051 20.8354 28.0166 20.59L25.7712 32.378ZM27.9431 32.9541C28.4513 33.1276 28.8687 33.34 29.2201 33.5777L35.9438 23.6383C34.6632 22.772 33.2805 22.0963 31.8208 21.5979L27.9431 32.9541ZM29.2869 33.6222C29.316 33.6414 29.3261 33.6522 29.3296 33.6559C29.3334 33.66 29.3512 33.6793 29.3798 33.7296L39.816 27.8064C38.8504 26.1051 37.5246 24.6765 35.877 23.5938L29.2869 33.6222ZM29.3798 33.7296C29.2425 33.4877 29.3539 33.5017 29.3539 34.08H41.3539C41.3539 32.0183 40.9613 29.8243 39.816 27.8064L29.3798 33.7296ZM29.3539 34.08C29.3539 34.3764 29.2927 34.615 29.0723 34.9366L38.9715 41.7194C40.5271 39.449 41.3539 36.8556 41.3539 34.08H29.3539ZM29.0586 34.9567C28.9404 35.1307 28.6003 35.5267 27.634 35.9696L32.6339 46.8784C35.1235 45.7373 37.3754 44.0693 38.9852 41.6993L29.0586 34.9567ZM27.6971 35.9411C26.9707 36.264 25.6959 36.576 23.6179 36.576V48.576C26.772 48.576 29.8411 48.12 32.5708 46.9069L27.6971 35.9411Z" fill="white"/>
</svg>
