<svg width="67" height="59" viewBox="0 0 67 59" fill="none" xmlns="http://www.w3.org/2000/svg">
<ellipse cx="33.68" cy="29.3953" rx="32.96" ry="29.3953" fill="#FF4500" fill-opacity="0.1"/>
<path d="M43.2835 27.2644C42.5019 27.2644 41.8142 27.5525 41.3088 28.0032C39.4488 26.8555 36.9426 26.1167 34.1656 26.0377L35.6088 20.2386L40.2042 21.1586C40.2042 22.1623 41.1212 22.9801 42.2466 22.9801C43.3929 22.9801 44.3151 22.1391 44.3151 21.1354C44.3151 20.1317 43.3981 19.2906 42.2466 19.2906C41.4443 19.2906 40.7513 19.7228 40.4074 20.3129L35.3327 19.3092C35.0774 19.2488 34.8273 19.4115 34.7596 19.6392L33.1757 26.033C30.4195 26.1353 27.9394 26.8741 26.0742 28.0218C25.5688 27.5525 24.855 27.2644 24.0735 27.2644C21.1766 27.2644 20.2283 30.7309 22.8803 31.9158C22.7865 32.2829 22.7448 32.6732 22.7448 33.0635C22.7448 36.9575 27.6633 40.1126 33.7019 40.1126C39.7666 40.1126 44.685 36.9575 44.685 33.0635C44.685 32.6732 44.6381 32.2643 44.5235 31.8972C47.1234 30.7076 46.1647 27.2644 43.2835 27.2644V27.2644ZM27.0849 32.162C27.0849 31.1398 28.0019 30.3173 29.1534 30.3173C30.2788 30.3173 31.1958 31.1351 31.1958 32.162C31.1958 33.1657 30.2788 33.9836 29.1534 33.9836C28.0072 33.9882 27.0849 33.1657 27.0849 32.162V32.162ZM38.2504 36.5067C36.3539 38.1981 31.003 38.1981 29.1065 36.5067C28.8981 36.3441 28.8981 36.056 29.1065 35.8701C29.2889 35.7075 29.6119 35.7075 29.7943 35.8701C31.2427 37.1944 36.0465 37.2177 37.5575 35.8701C37.7398 35.7075 38.0628 35.7075 38.2452 35.8701C38.4588 36.056 38.4588 36.3441 38.2504 36.5067ZM38.2087 33.9882C37.0833 33.9882 36.1663 33.1704 36.1663 32.1667C36.1663 31.1444 37.0833 30.3219 38.2087 30.3219C39.355 30.3219 40.2772 31.1398 40.2772 32.1667C40.272 33.1657 39.355 33.9882 38.2087 33.9882Z" fill="#FF4500"/>
</svg>
