<svg width="66" height="59" viewBox="0 0 66 59" fill="none" xmlns="http://www.w3.org/2000/svg">
<ellipse cx="32.96" cy="29.3953" rx="32.96" ry="29.3953" fill="#1DA1F2" fill-opacity="0.1"/>
<path d="M42.7791 24.6718C42.7948 24.8676 42.7948 25.0635 42.7948 25.2594C42.7948 31.2326 37.6971 38.1152 28.38 38.1152C25.5095 38.1152 22.843 37.3737 20.6 36.0868C21.0079 36.1288 21.4 36.1428 21.8235 36.1428C24.1919 36.1428 26.3722 35.4293 28.1133 34.2123C25.886 34.1703 24.0194 32.8694 23.3763 31.0788C23.69 31.1207 24.0037 31.1487 24.3332 31.1487C24.788 31.1487 25.2429 31.0927 25.6664 30.9948C23.345 30.5751 21.6039 28.7566 21.6039 26.5603V26.5044C22.2783 26.8401 23.0626 27.05 23.8939 27.0779C22.5293 26.2665 21.6352 24.8816 21.6352 23.3149C21.6352 22.4755 21.8862 21.7062 22.3254 21.0347C24.8194 23.7765 28.5682 25.5671 32.7718 25.7629C32.6934 25.4272 32.6463 25.0775 32.6463 24.7278C32.6463 22.2377 34.905 20.2094 37.7127 20.2094C39.1714 20.2094 40.4889 20.7549 41.4144 21.6362C42.5594 21.4404 43.6574 21.0627 44.6299 20.5451C44.2534 21.5943 43.4535 22.4756 42.4026 23.0351C43.4221 22.9372 44.4103 22.6854 45.32 22.3357C44.63 23.2309 43.7673 24.0283 42.7791 24.6718Z" fill="#1DA1F2"/>
</svg>
