<svg width="66" height="59" viewBox="0 0 66 59" fill="none" xmlns="http://www.w3.org/2000/svg">
<ellipse cx="33.04" cy="29.3953" rx="32.96" ry="29.3953" fill="#25D366" fill-opacity="0.1"/>
<path d="M41.6976 21.5758C39.3856 19.5089 36.3066 18.3721 33.0345 18.3721C26.2807 18.3721 20.7849 23.2735 20.7849 29.297C20.7849 31.2211 21.3477 33.101 22.4182 34.7594L20.6801 40.4186L27.1746 38.898C28.9624 39.7691 30.9764 40.2267 33.029 40.2267H33.0345C39.7829 40.2267 45.4001 35.3253 45.4001 29.3019C45.4001 26.3837 44.0096 23.6426 41.6976 21.5758V21.5758ZM33.0345 38.3862C31.2026 38.3862 29.4093 37.9483 27.8477 37.1215L27.4781 36.9247L23.6266 37.8252L24.6529 34.474L24.4101 34.1295C23.3893 32.6827 22.8541 31.0144 22.8541 29.297C22.8541 24.2922 27.4229 20.2175 33.0401 20.2175C35.7604 20.2175 38.3151 21.1624 40.2353 22.8799C42.1556 24.5973 43.3364 26.8758 43.3309 29.3019C43.3309 34.3116 38.6462 38.3862 33.0345 38.3862V38.3862ZM38.6186 31.5853C38.3151 31.4475 36.8088 30.7881 36.5273 30.6995C36.2459 30.606 36.0418 30.5617 35.8376 30.8373C35.6334 31.1128 35.0486 31.7231 34.8665 31.9101C34.6899 32.0921 34.5078 32.1168 34.2043 31.979C32.4055 31.1768 31.2247 30.5469 30.0383 28.731C29.7238 28.2488 30.3529 28.2832 30.9377 27.2399C31.0371 27.0579 30.9874 26.9004 30.9102 26.7626C30.8329 26.6248 30.2204 25.2814 29.9666 24.7351C29.7183 24.2036 29.4645 24.2774 29.2769 24.2676C29.1003 24.2578 28.8961 24.2578 28.692 24.2578C28.4878 24.2578 28.1567 24.3267 27.8753 24.5973C27.5939 24.8729 26.8049 25.5323 26.8049 26.8758C26.8049 28.2192 27.9029 29.5184 28.0519 29.7005C28.2064 29.8826 30.2094 32.6384 33.2828 33.8244C35.2251 34.5724 35.9866 34.6364 36.9577 34.5084C37.5481 34.4297 38.7676 33.849 39.0214 33.2092C39.2752 32.5695 39.2752 32.0233 39.198 31.9101C39.1263 31.787 38.9221 31.7181 38.6186 31.5853Z" fill="#25D366"/>
</svg>
