<svg width="41" height="40" viewBox="0 0 41 40" fill="none" xmlns="http://www.w3.org/2000/svg">
<path opacity="0.3" fill-rule="evenodd" clip-rule="evenodd" d="M5.02795 33.5C5.02795 34.3284 5.69953 35 6.52795 35H36.8613C37.6897 35 38.3613 34.3284 38.3613 33.5V13.1667C38.3613 12.3382 37.6897 11.6667 36.8613 11.6667H18.3613L13.8006 7.106C13.5193 6.82469 13.1378 6.66666 12.74 6.66666H6.52795C5.69953 6.66666 5.02795 7.33823 5.02795 8.16666V33.5Z" fill="#2FE6C8"/>
<path fill-rule="evenodd" clip-rule="evenodd" d="M1.69464 30.1667C1.69464 30.9951 2.36621 31.6667 3.19464 31.6667H33.528C34.3564 31.6667 35.028 30.9951 35.028 30.1667V9.83334C35.028 9.00492 34.3564 8.33334 33.528 8.33334H15.028L10.4673 3.77268C10.186 3.49138 9.80448 3.33334 9.40665 3.33334H3.19464C2.36621 3.33334 1.69464 4.00492 1.69464 4.83334V30.1667Z" fill="#2FE6C8"/>
</svg>
