<svg width="40" height="40" viewBox="0 0 40 40" fill="none" xmlns="http://www.w3.org/2000/svg">
<path opacity="0.3" fill-rule="evenodd" clip-rule="evenodd" d="M5.00006 33.5C5.00006 34.3284 5.67163 35 6.50006 35H36.8334C37.6618 35 38.3334 34.3284 38.3334 33.5V13.1667C38.3334 12.3382 37.6618 11.6667 36.8334 11.6667H18.3334L13.7727 7.106C13.4914 6.82469 13.1099 6.66666 12.7121 6.66666H6.50006C5.67163 6.66666 5.00006 7.33823 5.00006 8.16666V33.5Z" fill="#FF7F5C"/>
<path fill-rule="evenodd" clip-rule="evenodd" d="M1.66676 30.1667C1.66676 30.9951 2.33834 31.6667 3.16676 31.6667H33.5001C34.3285 31.6667 35.0001 30.9951 35.0001 30.1667V9.83334C35.0001 9.00492 34.3285 8.33334 33.5001 8.33334H15.0001L10.4394 3.77268C10.1581 3.49138 9.7766 3.33334 9.37878 3.33334H3.16676C2.33834 3.33334 1.66676 4.00492 1.66676 4.83334V30.1667Z" fill="#FF7F5C"/>
</svg>
