<svg width="5" height="21" viewBox="0 0 5 21" fill="none" xmlns="http://www.w3.org/2000/svg">
<path d="M4.02795 2C4.02795 3.10457 3.13252 4 2.02795 4C0.923385 4 0.0279541 3.10457 0.0279541 2C0.0279541 0.89543 0.923385 0 2.02795 0C3.13252 0 4.02795 0.89543 4.02795 2Z" fill="#3734A9"/>
<path d="M4.02795 10C4.02795 11.1046 3.13252 12 2.02795 12C0.923385 12 0.0279541 11.1046 0.0279541 10C0.0279541 8.89543 0.923385 8 2.02795 8C3.13252 8 4.02795 8.89543 4.02795 10Z" fill="#3734A9"/>
<path d="M4.02795 19C4.02795 20.1046 3.13252 21 2.02795 21C0.923385 21 0.0279541 20.1046 0.0279541 19C0.0279541 17.8954 0.923385 17 2.02795 17C3.13252 17 4.02795 17.8954 4.02795 19Z" fill="#3734A9"/>
</svg>
