<svg width="41" height="40" viewBox="0 0 41 40" fill="none" xmlns="http://www.w3.org/2000/svg">
<path opacity="0.3" fill-rule="evenodd" clip-rule="evenodd" d="M5.02792 33.5C5.02792 34.3284 5.6995 35 6.52792 35H36.8613C37.6897 35 38.3613 34.3284 38.3613 33.5V13.1667C38.3613 12.3382 37.6897 11.6667 36.8613 11.6667H18.3613L13.8006 7.106C13.5193 6.82469 13.1378 6.66666 12.7399 6.66666H6.52792C5.6995 6.66666 5.02792 7.33823 5.02792 8.16666V33.5Z" fill="#FDBC64"/>
<path fill-rule="evenodd" clip-rule="evenodd" d="M1.69461 30.1667C1.69461 30.9951 2.36618 31.6667 3.19461 31.6667H33.5279C34.3564 31.6667 35.0279 30.9951 35.0279 30.1667V9.83334C35.0279 9.00492 34.3564 8.33334 33.5279 8.33334H15.0279L10.4673 3.77268C10.186 3.49138 9.80445 3.33334 9.40662 3.33334H3.19461C2.36618 3.33334 1.69461 4.00492 1.69461 4.83334V30.1667Z" fill="#FDBC64"/>
</svg>
