<svg width="29" height="21" viewBox="0 0 29 21" fill="none" xmlns="http://www.w3.org/2000/svg">
<path d="M14.4901 13.568C18.7834 13.568 22.4494 14.2487 22.4494 16.9724C22.4494 19.6951 18.807 20.4005 14.4901 20.4005C10.1967 20.4005 6.53073 19.7199 6.53073 16.9972C6.53073 14.2735 10.1731 13.568 14.4901 13.568ZM21.3546 11.9279C22.996 11.8975 24.7607 12.1229 25.4127 12.2829C26.7942 12.5545 27.7028 13.1089 28.0793 13.9147C28.3975 14.5762 28.3975 15.3436 28.0793 16.004C27.5034 17.2537 25.6469 17.6549 24.9254 17.7586C24.7763 17.7811 24.6565 17.6515 24.6721 17.5016C25.0408 14.0386 22.1087 12.3967 21.3502 12.0192C21.3177 12.0023 21.3109 11.9764 21.3143 11.9606C21.3165 11.9493 21.33 11.9313 21.3546 11.9279ZM7.44478 11.9256L7.75387 11.9284C7.77852 11.9318 7.79084 11.9498 7.79308 11.9599C7.79644 11.9768 7.78972 12.0016 7.75835 12.0197C6.99872 12.3972 4.06663 14.0391 4.43524 17.501C4.45092 17.652 4.33216 17.7804 4.18315 17.759C3.46161 17.6554 1.60511 17.2542 1.02922 16.0044C0.709905 15.3429 0.709905 14.5766 1.02922 13.9151C1.40567 13.1094 2.3132 12.5549 3.69465 12.2822C4.34785 12.1233 6.11136 11.898 7.75387 11.9284L7.44478 11.9256ZM14.4901 0.380005C17.4132 0.380005 19.7571 2.73525 19.7571 5.6765C19.7571 8.61661 17.4132 10.9741 14.4901 10.9741C11.5669 10.9741 9.22305 8.61661 9.22305 5.6765C9.22305 2.73525 11.5669 0.380005 14.4901 0.380005ZM21.6403 1.26328C24.4638 1.26328 26.681 3.93519 25.9259 6.91137C25.4161 8.91502 23.5708 10.2459 21.5149 10.1918C21.3087 10.1862 21.1059 10.167 20.9098 10.1332C20.7676 10.1084 20.6958 9.94727 20.7765 9.82782C21.5608 8.6671 22.0078 7.27085 22.0078 5.77206C22.0078 4.2079 21.5193 2.74968 20.6712 1.55402C20.6443 1.51683 20.6241 1.45936 20.651 1.41654C20.6734 1.38161 20.7149 1.36357 20.7541 1.35456C21.0398 1.29596 21.3334 1.26328 21.6403 1.26328ZM7.46648 1.26317C7.77347 1.26317 8.06702 1.29585 8.35384 1.35445C8.39194 1.36346 8.43451 1.38262 8.45692 1.41643C8.48269 1.45925 8.46364 1.51672 8.43675 1.55391C7.58861 2.74956 7.10011 4.20779 7.10011 5.77194C7.10011 7.27074 7.54715 8.66698 8.33143 9.8277C8.4121 9.94716 8.3404 10.1083 8.19811 10.1331C8.00092 10.168 7.79924 10.1861 7.59309 10.1917C5.53715 10.2458 3.69185 8.91491 3.18207 6.91125C2.4258 3.93508 4.64307 1.26317 7.46648 1.26317Z" fill="#EFF2F4"/>
</svg>
