<svg width="23" height="26" viewBox="0 0 23 26" fill="none" xmlns="http://www.w3.org/2000/svg">
<path d="M11.56 0.815912C14.9134 0.815912 17.6703 3.451 17.8102 6.78994H17.7775C17.7815 6.88699 17.7628 6.98364 17.7231 7.07232H17.9184C19.4412 7.07232 21.0359 8.12779 21.6753 10.6758L21.7447 10.9764L22.7068 18.7277C23.3992 23.6715 20.6944 25.7506 17.0047 25.8386L16.7573 25.8416H6.3842C2.63442 25.8416 -0.255083 24.4751 0.380239 19.064L0.423563 18.7277L1.39673 10.9764C1.8766 8.23249 3.48758 7.15021 5.03981 7.07641L5.21198 7.07232H5.3098C5.2933 6.97891 5.2933 6.88335 5.3098 6.78994C5.44973 3.451 8.20665 0.815912 11.56 0.815912ZM7.92136 11.2382C7.3106 11.2382 6.81549 11.7478 6.81549 12.3764C6.81549 13.005 7.3106 13.5146 7.92136 13.5146C8.53211 13.5146 9.02723 13.005 9.02723 12.3764L9.01861 12.2336C8.95037 11.6724 8.48513 11.2382 7.92136 11.2382ZM15.1648 11.2382C14.5541 11.2382 14.0589 11.7478 14.0589 12.3764C14.0589 13.005 14.5541 13.5146 15.1648 13.5146C15.7756 13.5146 16.2707 13.005 16.2707 12.3764C16.2707 11.7478 15.7756 11.2382 15.1648 11.2382ZM11.511 2.44556C9.10337 2.44556 7.15162 4.39061 7.15162 6.78994C7.16812 6.88335 7.16812 6.97891 7.15162 7.07232H15.9248C15.89 6.98216 15.8715 6.88654 15.8703 6.78994C15.8703 4.39061 13.9186 2.44556 11.511 2.44556Z" fill="#EFF2F4"/>
</svg>
