<svg width="31" height="31" viewBox="0 0 31 31" fill="none" xmlns="http://www.w3.org/2000/svg">
<path d="M10.4485 17.1062C12.2128 17.1062 13.6267 18.5339 13.6267 20.3107V24.5764C13.6267 26.3407 12.2128 27.7796 10.4485 27.7796H6.21915C4.46735 27.7796 3.04089 26.3407 3.04089 24.5764V20.3107C3.04089 18.5339 4.46735 17.1062 6.21915 17.1062H10.4485ZM24.8884 17.1062C26.6402 17.1062 28.0667 18.5339 28.0667 20.3107V24.5764C28.0667 26.3407 26.6402 27.7796 24.8884 27.7796H20.6591C18.8948 27.7796 17.4808 26.3407 17.4808 24.5764V20.3107C17.4808 18.5339 18.8948 17.1062 20.6591 17.1062H24.8884ZM10.4485 2.75438C12.2128 2.75438 13.6267 4.19335 13.6267 5.95891V10.2245C13.6267 12.0013 12.2128 13.4278 10.4485 13.4278H6.21915C4.46735 13.4278 3.04089 12.0013 3.04089 10.2245V5.95891C3.04089 4.19335 4.46735 2.75438 6.21915 2.75438H10.4485ZM24.8884 2.75438C26.6402 2.75438 28.0667 4.19335 28.0667 5.95891V10.2245C28.0667 12.0013 26.6402 13.4278 24.8884 13.4278H20.6591C18.8948 13.4278 17.4808 12.0013 17.4808 10.2245V5.95891C17.4808 4.19335 18.8948 2.75438 20.6591 2.75438H24.8884Z" fill="#EFF2F4"/>
</svg>
