<svg width="26" height="26" viewBox="0 0 26 26" fill="none" xmlns="http://www.w3.org/2000/svg">
<path d="M12.5789 0.692848C19.6861 0.692848 25.0667 6.52005 25.0667 13.1869C25.0667 20.9189 18.7602 25.7185 12.5538 25.7185C10.5017 25.7185 8.2244 25.1671 6.39753 24.0894C5.75937 23.7009 5.22132 23.4127 4.53312 23.6382L2.00553 24.3901C1.36737 24.5906 0.791785 24.0894 0.979477 23.4127L1.81784 20.6056C1.95548 20.2171 1.93045 19.8036 1.73025 19.4777C0.654144 17.4977 0.0410156 15.3298 0.0410156 13.2245C0.0410156 6.63283 5.30891 0.692848 12.5789 0.692848ZM18.2972 11.6329C17.4088 11.6329 16.6956 12.3473 16.6956 13.237C16.6956 14.1142 17.4088 14.841 18.2972 14.841C19.1856 14.841 19.8989 14.1142 19.8989 13.237C19.8989 12.3473 19.1856 11.6329 18.2972 11.6329ZM12.5288 11.6329C11.6529 11.6204 10.9272 12.3473 10.9272 13.2245C10.9272 14.1142 11.6404 14.8285 12.5288 14.841C13.4172 14.841 14.1305 14.1142 14.1305 13.237C14.1305 12.3473 13.4172 11.6329 12.5288 11.6329ZM6.7604 11.6329C5.87199 11.6329 5.15876 12.3473 5.15876 13.237C5.15876 14.1142 5.8845 14.841 6.7604 14.841C7.64881 14.8285 8.36204 14.1142 8.36204 13.237C8.36204 12.3473 7.64881 11.6329 6.7604 11.6329Z" fill="#EFF2F4"/>
</svg>
