<svg width="1523" height="1106" xmlns="http://www.w3.org/2000/svg">

 <g label="Layer 1" id="imagebot_3">
  <path stroke-width="10" stroke="#000000" label="Layer 1" fill="#ffffff" d="M 1071.1615657806396 11.675745819091794 C 885.3215657806396 -35.623254180908205 693.1715657806396 65.0477458190918 641.9215657806396 236.57574581909182 C 637.6956657806396 250.71974581909177 634.5615657806396 264.94574581909177 632.4695657806396 279.0937458190918 C 616.1625657806396 270.27454581909177 598.3735657806396 263.1797458190918 579.2885657806396 258.3227458190918 C 461.48856578063965 228.34474581909177 339.65856578063966 292.1757458190918 307.17856578063964 400.8927458190918 C 297.80946578063964 432.2507458190918 296.96156578063966 463.8857458190918 303.2334657806397 493.79474581909176 C 168.82346578063965 506.8317458190918 51.65346578063965 591.0227458190918 14.67346578063965 714.7847458190918 C -34.05053421936035 877.8647458190918 74.88846578063965 1047.8347458190917 258.03346578063963 1094.4447458190918 C 398.68346578063966 1130.2367458190918 542.2134657806397 1082.8797458190918 623.3034657806396 985.1147458190918 C 665.9994657806396 1031.0087458190917 723.1584657806396 1066.3207458190918 790.9034657806396 1084.1617458190917 C 931.3934657806396 1121.163745819092 1076.3234657806397 1072.548745819092 1160.4734657806396 971.9517458190918 C 1178.9024657806397 982.1977458190918 1199.0824657806397 990.3377458190919 1220.8404657806398 995.8757458190919 C 1349.1104657806397 1028.5187458190917 1481.8404657806398 958.9737458190918 1517.2104657806397 840.5957458190918 C 1539.3164657806396 766.6077458190917 1518.1159657806397 691.0257458190918 1467.8444657806397 636.7757458190918 C 1472.8459657806397 626.7697458190918 1477.1304657806397 616.2587458190918 1480.4084657806397 605.2877458190918 C 1512.8904657806397 496.5677458190918 1443.7274657806397 384.1377458190918 1325.9284657806397 354.1577458190918 C 1325.8994657806397 354.1487458190918 1325.8694657806398 354.1439458190918 1325.8394657806396 354.1331458190918 C 1342.5394657806396 200.7331458190918 1237.6394657806397 54.0331458190918 1071.1394657806397 11.673145819091793 L 1071.1615657806396 11.675745819091794 z" id="imagebot_4"/>
  <title>Layer 1</title>
 </g>
 <metadata id="imagebot_2">image/svg+xmlOpenclipart</metadata>
</svg>