<svg width="23" height="26" viewBox="0 0 23 26" fill="none" xmlns="http://www.w3.org/2000/svg">
<path d="M16.798 0.631317C20.6632 0.631317 22.8154 2.8586 22.8154 6.67501V19.6008C22.8154 23.4797 20.6632 25.657 16.798 25.657H6.31096C2.50707 25.657 0.292297 23.4797 0.292297 19.6008V6.67501C0.292297 2.8586 2.50707 0.631317 6.31096 0.631317H16.798ZM6.64881 17.8239C6.27343 17.7864 5.91055 17.9616 5.71035 18.2869C5.51014 18.5997 5.51014 19.0126 5.71035 19.338C5.91055 19.6508 6.27343 19.8385 6.64881 19.7884H16.4589C16.9581 19.7384 17.3348 19.3117 17.3348 18.8124C17.3348 18.2994 16.9581 17.874 16.4589 17.8239H6.64881ZM16.4589 12.1168H6.64881C6.10951 12.1168 5.67281 12.556 5.67281 13.0941C5.67281 13.6321 6.10951 14.0701 6.64881 14.0701H16.4589C16.9969 14.0701 17.4349 13.6321 17.4349 13.0941C17.4349 12.556 16.9969 12.1168 16.4589 12.1168ZM10.3889 6.44978H6.64881V6.46229C6.10951 6.46229 5.67281 6.90024 5.67281 7.43829C5.67281 7.97634 6.10951 8.41429 6.64881 8.41429H10.3889C10.9282 8.41429 11.3661 7.97634 11.3661 7.42453C11.3661 6.88773 10.9282 6.44978 10.3889 6.44978Z" fill="#EFF2F4"/>
</svg>
