<svg width="26" height="26" viewBox="0 0 26 26" fill="none" xmlns="http://www.w3.org/2000/svg">
<path d="M18.3914 0.521172C20.1914 0.408673 21.9664 1.03367 23.3039 2.25866C24.5289 3.59614 25.1539 5.37113 25.0539 7.18361V18.8585C25.1664 20.671 24.5289 22.446 23.3164 23.7835C21.9789 25.0085 20.1914 25.6334 18.3914 25.5209H6.71644C4.90394 25.6334 3.12895 25.0085 1.79145 23.7835C0.566448 22.446 -0.0585518 20.671 0.053948 18.8585V7.18361C-0.0585518 5.37113 0.566448 3.59614 1.79145 2.25866C3.12895 1.03367 4.90394 0.408673 6.71644 0.521172H18.3914ZM18.0664 6.23362C17.2914 5.45863 16.0414 5.45863 15.2664 6.23362L14.4289 7.08361C14.3039 7.20861 14.3039 7.42111 14.4289 7.54611C14.4289 7.54611 14.4535 7.57049 14.4971 7.61391L14.8046 7.91969C14.9825 8.09664 15.2045 8.31763 15.4274 8.53985L16.1833 9.29537C16.341 9.45381 16.4456 9.55998 16.4539 9.57109C16.5914 9.72109 16.6789 9.92109 16.6789 10.1461C16.6789 10.5961 16.3164 10.9711 15.8539 10.9711C15.6414 10.9711 15.4414 10.8836 15.3039 10.7461L13.2164 8.6711C13.1164 8.5711 12.9414 8.5711 12.8414 8.6711L6.87894 14.6335C6.46644 15.046 6.22894 15.596 6.21644 16.1835L6.14144 19.146C6.14144 19.3085 6.19144 19.4585 6.30394 19.571C6.41644 19.6835 6.56644 19.746 6.72894 19.746H9.66644C10.2664 19.746 10.8414 19.5085 11.2789 19.0835L19.6914 10.6461C20.4539 9.87109 20.4539 8.6211 19.6914 7.85861L18.0664 6.23362Z" fill="#EFF2F4"/>
</svg>
