<svg width="26" height="23" viewBox="0 0 26 23" fill="none" xmlns="http://www.w3.org/2000/svg">
<path d="M20.7637 14.0404C23.1411 14.0404 25.0667 15.9336 25.0667 18.2693C25.0667 20.6036 23.1411 22.4968 20.7637 22.4968C18.3876 22.4968 16.4607 20.6036 16.4607 18.2693C16.4607 15.9336 18.3876 14.0404 20.7637 14.0404ZM10.1555 16.4659C11.1968 16.4659 12.0421 17.2963 12.0421 18.3194C12.0421 19.3411 11.1968 20.173 10.1555 20.173H1.92766C0.886321 20.173 0.0410156 19.3411 0.0410156 18.3194C0.0410156 17.2963 0.886321 16.4659 1.92766 16.4659H10.1555ZM4.34401 0.251801C6.72143 0.251801 8.64701 2.14497 8.64701 4.47933C8.64701 6.81506 6.72143 8.70823 4.34401 8.70823C1.96798 8.70823 0.0410156 6.81506 0.0410156 4.47933C0.0410156 2.14497 1.96798 0.251801 4.34401 0.251801ZM23.1814 2.62714C24.2213 2.62714 25.0667 3.45762 25.0667 4.47933C25.0667 5.50241 24.2213 6.33289 23.1814 6.33289H14.9536C13.9122 6.33289 13.0669 5.50241 13.0669 4.47933C13.0669 3.45762 13.9122 2.62714 14.9536 2.62714H23.1814Z" fill="#EFF2F4"/>
</svg>
