<svg width="25" height="26" viewBox="0 0 25 26" fill="none" xmlns="http://www.w3.org/2000/svg">
<path d="M8.9686 23.9374V20.1114C8.9686 19.1347 9.76616 18.3429 10.75 18.3429H14.3464C14.8189 18.3429 15.272 18.5292 15.606 18.8609C15.9401 19.1925 16.1278 19.6423 16.1278 20.1114V23.9374C16.1248 24.3435 16.2852 24.7339 16.5734 25.0221C16.8616 25.3103 17.2537 25.4723 17.6627 25.4723H20.1163C21.2623 25.4753 22.3623 25.0254 23.1736 24.2221C23.985 23.4187 24.441 22.3278 24.441 21.1902V10.2903C24.441 9.37141 24.0306 8.49974 23.3206 7.91017L14.9738 1.29239C13.5219 0.132066 11.4416 0.169529 10.033 1.38137L1.87663 7.91017C1.13303 8.48236 0.688589 9.35661 0.666626 10.2903V21.1791C0.666626 23.5502 2.60284 25.4723 4.99127 25.4723H7.38888C8.23842 25.4723 8.92884 24.7919 8.93499 23.9486L8.9686 23.9374Z" fill="#EFF2F4"/>
</svg>
