<svg width="26" height="26" viewBox="0 0 26 26" fill="none" xmlns="http://www.w3.org/2000/svg">
<path d="M17.9767 0.569763C22.2176 0.569763 25.0667 3.54545 25.0667 7.97325V18.1919C25.0667 22.6197 22.2176 25.5954 17.9754 25.5954H7.13101C2.89005 25.5954 0.0410156 22.6197 0.0410156 18.1919V7.97325C0.0410156 3.54545 2.89005 0.569763 7.13101 0.569763H17.9767ZM19.3565 13.7709C18.0152 12.9341 16.9797 14.1092 16.7004 14.4849C16.4311 14.8478 16.1996 15.2481 15.9555 15.6484C15.3591 16.6363 14.6758 17.7752 13.4931 18.4377C11.7743 19.3894 10.4695 18.5126 9.53079 17.8746C9.17848 17.637 8.83623 17.4124 8.49524 17.2626C7.65473 16.8997 6.89851 17.3129 5.77614 18.7385C5.18728 19.4836 4.60345 20.2222 4.01206 20.9583C3.65849 21.3986 3.7428 22.0779 4.21968 22.3723C4.98092 22.841 5.90952 23.0928 6.95891 23.0928H17.5044C18.0995 23.0928 18.696 23.0115 19.2647 22.8255C20.5456 22.4072 21.5623 21.449 22.0933 20.1835C22.5412 19.1195 22.7589 17.8282 22.3399 16.7538C22.2002 16.3974 21.9913 16.0655 21.6982 15.7737C20.9294 15.0105 20.2109 14.2977 19.3565 13.7709ZM8.17292 5.57489C6.44785 5.57489 5.04614 6.97849 5.04614 8.7031C5.04614 10.4277 6.44785 11.8313 8.17292 11.8313C9.89674 11.8313 11.2997 10.4277 11.2997 8.7031C11.2997 6.97849 9.89674 5.57489 8.17292 5.57489Z" fill="#EFF2F4"/>
</svg>
