<svg width="27" height="26" viewBox="0 0 27 26" fill="none" xmlns="http://www.w3.org/2000/svg">
<path d="M11.9191 0.185089C15.0255 0.185089 17.559 2.67514 17.559 5.74078V11.7344H9.92032C9.37289 11.7344 8.94003 12.1599 8.94003 12.6979C8.94003 13.2234 9.37289 13.6614 9.92032 13.6614H17.559V19.6425C17.559 22.7082 15.0255 25.2107 11.8936 25.2107H5.69361C2.5745 25.2107 0.0410156 22.7207 0.0410156 19.655V5.75329C0.0410156 2.67514 2.58723 0.185089 5.70634 0.185089H11.9191ZM20.7375 8.38124C21.1129 7.99334 21.726 7.99334 22.1014 8.36872L25.7551 12.01C25.9428 12.1976 26.0429 12.4354 26.0429 12.6982C26.0429 12.9484 25.9428 13.1987 25.7551 13.3739L22.1014 17.0151C21.9137 17.2028 21.6634 17.3029 21.4257 17.3029C21.1754 17.3029 20.9252 17.2028 20.7375 17.0151C20.3621 16.6397 20.3621 16.0266 20.7375 15.6512L22.7395 13.6616H17.5592V11.7347H22.7395L20.7375 9.74513C20.3621 9.36975 20.3621 8.75662 20.7375 8.38124Z" fill="white"/>
</svg>
