<svg width="25" height="26" viewBox="0 0 25 26" fill="none" xmlns="http://www.w3.org/2000/svg">
<path d="M13.4511 0.93911C14.3974 0.93911 15.2542 1.46465 15.7273 2.24044C15.9575 2.61583 16.1109 3.0788 16.0726 3.5668C16.047 3.94219 16.1621 4.31757 16.3667 4.66793C17.0189 5.73152 18.4639 6.13193 19.5892 5.53131C20.8551 4.80557 22.4536 5.24352 23.1825 6.48229L24.0392 7.9588C24.7809 9.19757 24.3717 10.7867 23.093 11.4999C22.006 12.1381 21.6224 13.552 22.2746 14.6281C22.4792 14.966 22.7093 15.2538 23.0674 15.429C23.515 15.6667 23.8602 16.0421 24.1032 16.4175C24.5763 17.1933 24.538 18.1442 24.0776 18.9826L23.1825 20.4841C22.7093 21.285 21.827 21.7855 20.9191 21.7855C20.4715 21.7855 19.9728 21.6603 19.5636 21.4101C19.2311 21.1974 18.8475 21.1223 18.4383 21.1223C17.1723 21.1223 16.1109 22.1609 16.0726 23.3996C16.0726 24.8386 14.8961 25.9647 13.4256 25.9647H11.6865C10.2031 25.9647 9.02664 24.8386 9.02664 23.3996C9.00106 22.1609 7.93969 21.1223 6.67372 21.1223C6.25173 21.1223 5.86811 21.1974 5.54842 21.4101C5.13922 21.6603 4.62771 21.7855 4.19293 21.7855C3.27223 21.7855 2.38989 21.285 1.91675 20.4841L1.03441 18.9826C0.561266 18.1693 0.53569 17.1933 1.00883 16.4175C1.21343 16.0421 1.59706 15.6667 2.03184 15.429C2.38989 15.2538 2.62006 14.966 2.83745 14.6281C3.47683 13.552 3.0932 12.1381 2.00626 11.4999C0.740292 10.7867 0.331089 9.19757 1.05998 7.9588L1.91675 6.48229C2.65843 5.24352 4.24409 4.80557 5.52284 5.53131C6.63536 6.13193 8.08036 5.73152 8.73252 4.66793C8.93712 4.31757 9.05221 3.94219 9.02664 3.5668C9.00106 3.0788 9.14172 2.61583 9.38469 2.24044C9.85783 1.46465 10.7146 0.964135 11.6481 0.93911H13.4511ZM12.5688 9.92331C10.5611 9.92331 8.93712 11.4999 8.93712 13.4644C8.93712 15.429 10.5611 16.9931 12.5688 16.9931C14.5764 16.9931 16.1621 15.429 16.1621 13.4644C16.1621 11.4999 14.5764 9.92331 12.5688 9.92331Z" fill="#EFF2F4"/>
</svg>
