<svg width="29" height="28" viewBox="0 0 29 28" fill="none" xmlns="http://www.w3.org/2000/svg">
<path fill-rule="evenodd" clip-rule="evenodd" d="M9.42274 6.57453C8.91114 6.07019 8.91114 5.2525 9.42274 4.74816L13.2304 0.994618C13.742 0.490279 14.5714 0.490279 15.0831 0.994618L18.8907 4.74816C19.4023 5.2525 19.4023 6.07019 18.8907 6.57453L15.0831 10.3281C14.5714 10.8324 13.742 10.8324 13.2304 10.3281L9.42274 6.57453ZM13.4586 14.6783C13.2028 14.4261 13.2028 14.0173 13.4586 13.7651L13.7114 13.5158C13.9673 13.2637 14.382 13.2637 14.6378 13.5158L14.8907 13.7651C15.1465 14.0173 15.1465 14.4261 14.8907 14.6783L14.6378 14.9276C14.382 15.1798 13.9673 15.1798 13.7114 14.9276L13.4586 14.6783ZM18.4087 13.3279C17.8971 13.8322 17.8971 14.6499 18.4087 15.1542L22.2163 18.9078C22.7279 19.4121 23.5574 19.4121 24.069 18.9078L27.8766 15.1542C28.3882 14.6499 28.3882 13.8322 27.8766 13.3279L24.069 9.57432C23.5574 9.06998 22.7279 9.06998 22.2163 9.57432L18.4087 13.3279ZM0.492408 15.1446C-0.0191977 14.6402 -0.0191978 13.8225 0.492408 13.3182L4.30003 9.56467C4.81164 9.06033 5.64111 9.06033 6.15272 9.56467L9.96034 13.3182C10.4719 13.8225 10.4719 14.6402 9.96034 15.1446L6.15272 18.8981C5.64111 19.4025 4.81164 19.4025 4.30003 18.8981L0.492408 15.1446ZM9.42274 21.8465C8.91114 22.3508 8.91114 23.1685 9.42274 23.6729L13.2304 27.4264C13.742 27.9308 14.5714 27.9308 15.0831 27.4264L18.8907 23.6729C19.4023 23.1685 19.4023 22.3508 18.8907 21.8465L15.0831 18.093C14.5714 17.5886 13.742 17.5886 13.2304 18.093L9.42274 21.8465Z" fill="#2196F3"/>
</svg>
