<svg width="50" height="45" viewBox="0 0 50 45" fill="none" xmlns="http://www.w3.org/2000/svg">
<path fill-rule="evenodd" clip-rule="evenodd" d="M37.0353 10.3646C38.7827 10.5626 40.4249 11.0573 41.962 11.849C43.4991 12.6406 44.842 13.6549 45.9907 14.8918C47.1395 16.1288 48.0456 17.5471 48.7089 19.1469C49.3723 20.7467 49.704 22.4536 49.704 24.2678C49.704 25.983 49.4451 27.6982 48.9274 29.4135C48.4096 31.1287 47.6573 32.6707 46.6703 34.0396C45.6833 35.4085 44.4537 36.5382 42.9813 37.4288C41.509 38.3194 39.802 38.7977 37.8605 38.8637H34.3171C33.8964 38.8637 33.5324 38.707 33.225 38.3936C32.9176 38.0803 32.7639 37.7092 32.7639 37.2804C32.7639 36.8516 32.9176 36.4805 33.225 36.1671C33.5324 35.8538 33.8964 35.6971 34.3171 35.6971H37.8605C39.1872 35.6971 40.3926 35.3508 41.4766 34.6581C42.5607 33.9654 43.491 33.0748 44.2676 31.9863C45.0442 30.8978 45.6429 29.6774 46.0635 28.325C46.4842 26.9726 46.6946 25.6202 46.6946 24.2678C46.6946 22.7835 46.4033 21.3899 45.8209 20.087C45.2384 18.7841 44.4456 17.6461 43.4424 16.673C42.4393 15.7 41.2906 14.9248 39.9962 14.3476C38.7018 13.7703 37.3265 13.4817 35.8703 13.4817L34.754 13.4322L34.4142 12.3437C33.6052 9.70493 32.3027 7.65163 30.5068 6.1838C28.7108 4.71596 26.2758 3.98205 23.2017 3.98205C21.2601 3.98205 19.5127 4.32014 17.9594 4.99634C16.4062 5.67253 15.0714 6.61259 13.955 7.81655C12.8386 9.02051 11.9811 10.4553 11.3824 12.1211C10.7838 13.7868 10.4844 15.5763 10.4844 17.4894H10.533L10.63 18.9737L9.22242 19.2211C7.50736 19.518 6.05121 20.458 4.8539 22.0413C3.6566 23.6246 3.05796 25.4058 3.05796 27.3849C3.05796 29.6279 3.79413 31.574 5.26649 33.2232C6.73884 34.8725 8.47814 35.6971 10.4844 35.6971H14.95C15.4031 35.6971 15.7752 35.8538 16.0664 36.1671C16.3577 36.4805 16.5033 36.8516 16.5033 37.2804C16.5033 37.7092 16.3577 38.0803 16.0664 38.3936C15.7752 38.707 15.4031 38.8637 14.95 38.8637H10.4844C9.06061 38.8637 7.71771 38.5586 6.45569 37.9483C5.19367 37.3381 4.08537 36.5052 3.13077 35.4497C2.17616 34.3942 1.41572 33.1738 0.849433 31.7884C0.283142 30.403 0 28.9352 0 27.3849C0 24.845 0.695719 22.5526 2.08718 20.5075C3.47864 18.4624 5.25839 17.0936 7.42647 16.4009C7.55591 14.1909 8.03321 12.1376 8.85837 10.2409C9.68354 8.3443 10.7838 6.69507 12.159 5.2932C13.5343 3.89133 15.1523 2.79459 17.0129 2.00295C18.8736 1.21131 20.9365 0.815491 23.2017 0.815491C24.9491 0.815491 26.5508 1.03814 28.007 1.48344C29.4632 1.92874 30.7737 2.56369 31.9387 3.38832C33.1036 4.21295 34.1068 5.21898 34.9481 6.40644C35.7895 7.59391 36.4852 8.9133 37.0353 10.3646ZM26.017 22.9815L31.7446 29.4135C31.9711 29.6444 32.0844 29.9165 32.0844 30.2299C32.0844 30.5433 31.9711 30.8319 31.7446 31.0958L31.3563 31.3431C31.1621 31.574 30.9113 31.6647 30.6039 31.6153C30.2965 31.5658 30.0295 31.4256 29.803 31.1947L26.4053 27.3355V43.2672C26.4053 43.729 26.2516 44.1083 25.9442 44.4052C25.6368 44.702 25.2727 44.8505 24.852 44.8505C24.399 44.8505 24.0269 44.702 23.7356 44.4052C23.4444 44.1083 23.2988 43.729 23.2988 43.2672V27.3355L19.9981 31.0958C19.7716 31.3266 19.5047 31.4668 19.1973 31.5163C18.8898 31.5658 18.6229 31.4751 18.3964 31.2442L18.008 30.9968C17.7815 30.7329 17.6683 30.4443 17.6683 30.1309C17.6683 29.8176 17.7815 29.5455 18.008 29.3146L23.6386 22.9815C23.6386 22.9815 23.6386 22.965 23.6386 22.932L24.0269 22.5362C24.124 22.4042 24.2453 22.3135 24.3909 22.264C24.5365 22.2146 24.6741 22.1898 24.8035 22.1898C24.9653 22.1898 25.1109 22.2146 25.2404 22.264C25.3698 22.3135 25.4992 22.4042 25.6287 22.5362L26.017 22.932C26.017 22.965 26.017 22.9815 26.017 22.9815Z" fill="white"/>
</svg>
