<svg width="25" height="24" viewBox="0 0 25 24" fill="none" xmlns="http://www.w3.org/2000/svg">
<path d="M12.083 22.7499C6.15301 22.7499 1.33301 17.9299 1.33301 11.9999C1.33301 6.06994 6.15301 1.24994 12.083 1.24994C18.013 1.24994 22.833 6.06994 22.833 11.9999C22.833 17.9299 18.013 22.7499 12.083 22.7499ZM12.083 2.74994C6.98301 2.74994 2.83301 6.89994 2.83301 11.9999C2.83301 17.0999 6.98301 21.2499 12.083 21.2499C17.183 21.2499 21.333 17.0999 21.333 11.9999C21.333 6.89994 17.183 2.74994 12.083 2.74994Z" fill="#87898E"/>
<path d="M9.25311 15.5799C9.06311 15.5799 8.87312 15.5099 8.72312 15.3599C8.43312 15.0699 8.43312 14.5899 8.72312 14.2999L14.3831 8.63992C14.6731 8.34992 15.1531 8.34992 15.4431 8.63992C15.7331 8.92992 15.7331 9.40992 15.4431 9.69992L9.78311 15.3599C9.64311 15.5099 9.44311 15.5799 9.25311 15.5799Z" fill="#FCFCFD"/>
<path d="M14.9131 15.5799C14.7231 15.5799 14.5331 15.5099 14.3831 15.3599L8.72312 9.69992C8.43312 9.40992 8.43312 8.92992 8.72312 8.63992C9.01312 8.34992 9.49311 8.34992 9.78311 8.63992L15.4431 14.2999C15.7331 14.5899 15.7331 15.0699 15.4431 15.3599C15.2931 15.5099 15.1031 15.5799 14.9131 15.5799Z" fill="#FCFCFD"/>
</svg>
