<svg width="46" height="55" viewBox="0 0 46 55" fill="none" xmlns="http://www.w3.org/2000/svg">
<path d="M38.7963 12.1678C35.891 10.6029 32.7755 9.44998 29.5181 8.78964C29.4588 8.77689 29.3995 8.80874 29.369 8.87244C28.9683 9.70901 28.5245 10.8004 28.2137 11.6582C24.7101 11.0425 21.2245 11.0425 17.7928 11.6582C17.4819 10.7813 17.022 9.70901 16.6195 8.87244C16.589 8.81087 16.5297 8.77902 16.4704 8.78964C13.2148 9.44787 10.0993 10.6008 7.19224 12.1678C7.16707 12.1806 7.1455 12.2018 7.13118 12.2294C1.2218 22.5933 -0.397033 32.7024 0.39711 42.6863C0.400704 42.7351 0.42406 42.7818 0.456401 42.8115C4.35525 46.1727 8.13194 48.2132 11.8385 49.5658C11.8978 49.587 11.9607 49.5615 11.9984 49.5042C12.8752 48.0986 13.6568 46.6165 14.3269 45.058C14.3665 44.9667 14.3287 44.8584 14.2479 44.8223C13.0082 44.2702 11.8277 43.5971 10.6922 42.8328C10.6024 42.7712 10.5952 42.6204 10.6778 42.5482C10.9168 42.338 11.1558 42.1193 11.384 41.8985C11.4252 41.8581 11.4828 41.8496 11.5313 41.8751C18.9912 45.8733 27.0674 45.8733 34.4392 41.8751C34.4878 41.8475 34.5453 41.856 34.5884 41.8964C34.8166 42.1172 35.0555 42.338 35.2963 42.5482C35.3789 42.6204 35.3735 42.7712 35.2837 42.8328C34.1482 43.612 32.9677 44.2702 31.7262 44.8202C31.6454 44.8563 31.6094 44.9667 31.649 45.058C32.3335 46.6143 33.1151 48.0964 33.9757 49.5021C34.0116 49.5615 34.0763 49.587 34.1356 49.5658C37.8602 48.2132 41.6368 46.1727 45.5357 42.8115C45.5698 42.7818 45.5914 42.7372 45.595 42.6884C46.5454 31.146 44.0031 21.1197 38.8555 12.2315C38.8429 12.2018 38.8214 12.1806 38.7963 12.1678ZM15.4409 36.6072C13.195 36.6072 11.3444 34.1866 11.3444 31.214C11.3444 28.2413 13.1591 25.8208 15.4409 25.8208C17.7407 25.8208 19.5733 28.2626 19.5374 31.214C19.5374 34.1866 17.7227 36.6072 15.4409 36.6072ZM30.5871 36.6072C28.3412 36.6072 26.4907 34.1866 26.4907 31.214C26.4907 28.2413 28.3053 25.8208 30.5871 25.8208C32.8869 25.8208 34.7195 28.2626 34.6836 31.214C34.6836 34.1866 32.8869 36.6072 30.5871 36.6072Z" fill="#5865F2"/>
</svg>
