<svg width="33" height="24" viewBox="0 0 33 24" fill="none" xmlns="http://www.w3.org/2000/svg">
<path d="M3.65627 -1.52588e-05C1.63698 -1.52588e-05 1.90735e-05 1.46905 1.90735e-05 3.28123V6.92707C1.90735e-05 8.73925 1.63698 10.2083 3.65627 10.2083H7.71877C9.73806 10.2083 11.375 8.73925 11.375 6.92707V3.28123C11.375 1.46905 9.73806 -1.52588e-05 7.71877 -1.52588e-05H3.65627ZM2.43752 3.28123C2.43752 2.67718 2.98318 2.18748 3.65627 2.18748H7.71877C8.39186 2.18748 8.93752 2.67718 8.93752 3.28123V6.92707C8.93752 7.53112 8.39186 8.02082 7.71877 8.02082H3.65627C2.98318 8.02082 2.43752 7.53112 2.43752 6.92707V3.28123ZM15.0313 1.45832C14.3582 1.45832 13.8125 1.94801 13.8125 2.55207C13.8125 3.15612 14.3582 3.64582 15.0313 3.64582H31.2813C31.9543 3.64582 32.5 3.15612 32.5 2.55207C32.5 1.94801 31.9543 1.45832 31.2813 1.45832H15.0313ZM15.0313 5.83332C14.3582 5.83332 13.8125 6.32301 13.8125 6.92707C13.8125 7.53112 14.3582 8.02082 15.0313 8.02082H26.4063C27.0793 8.02082 27.625 7.53112 27.625 6.92707C27.625 6.32301 27.0793 5.83332 26.4063 5.83332H15.0313ZM3.65627 13.125C1.63698 13.125 1.90735e-05 14.5941 1.90735e-05 16.4062V20.0521C1.90735e-05 21.8642 1.63698 23.3333 3.65627 23.3333H7.71877C9.73806 23.3333 11.375 21.8642 11.375 20.0521V16.4062C11.375 14.5941 9.73806 13.125 7.71877 13.125H3.65627ZM2.43752 16.4062C2.43752 15.8022 2.98318 15.3125 3.65627 15.3125H7.71877C8.39186 15.3125 8.93752 15.8022 8.93752 16.4062V20.0521C8.93752 20.6561 8.39186 21.1458 7.71877 21.1458H3.65627C2.98318 21.1458 2.43752 20.6561 2.43752 20.0521V16.4062ZM15.0313 14.5833C14.3582 14.5833 13.8125 15.073 13.8125 15.6771C13.8125 16.2811 14.3582 16.7708 15.0313 16.7708H31.2813C31.9543 16.7708 32.5 16.2811 32.5 15.6771C32.5 15.073 31.9543 14.5833 31.2813 14.5833H15.0313ZM15.0313 18.9583C14.3582 18.9583 13.8125 19.448 13.8125 20.0521C13.8125 20.6561 14.3582 21.1458 15.0313 21.1458H26.4063C27.0793 21.1458 27.625 20.6561 27.625 20.0521C27.625 19.448 27.0793 18.9583 26.4063 18.9583H15.0313Z" fill="white"/>
</svg>
